# xmcd CD database file
#
# Track frame offsets:
#	150
#	22208
#	42348
#	60028
#	81093
#	101800
#	127343
#	147323
#	166583
#	192748
#	213475
#	234300
#	254153
#	270403
#
# Disc length: 3875 seconds
#
# Revision: 0
# Processed by: cddbd v1.5PL3 Copyright (c) Steve Scherf et al.
# Submitted via: CDex 1.51
#
DISCID=ce0f210e
DTITLE=ロマントリップ - 交響絵巻　異次元童話・宇宙皇子　〜地上篇・天上篇〜　DISK1
DYEAR=1987
DGENRE=Anime
TTITLE0=序曲〜古代の奔流〜
TTITLE1=宇宙皇子
TTITLE2=仲間
TTITLE3=愛しき者へ
TTITLE4=勇気ある戦い
TTITLE5=故郷・飛鳥・金剛山
TTITLE6=荒ぶる神々
TTITLE7=安らぎ
TTITLE8=終曲〜生きとし生ける物の詩〜
TTITLE9=名もなき花々の散華
TTITLE10=一期一会
TTITLE11=愛しき太陽に死す
TTITLE12=キジムナー
TTITLE13=毛遊びの夜
EXTD=YEAR: 1987
EXTT0=
EXTT1=
EXTT2=
EXTT3=
EXTT4=
EXTT5=
EXTT6=
EXTT7=
EXTT8=
EXTT9=
EXTT10=
EXTT11=
EXTT12=
EXTT13=
PLAYORDER=
